<?xml version="1.0" encoding="UTF-8" standalone="no"?><svg xmlns="http://www.w3.org/2000/svg" xmlns:xlink="http://www.w3.org/1999/xlink" contentStyleType="text/css" height="537px" preserveAspectRatio="none" style="width:490px;height:537px;background:#FFFFFF;" version="1.1" viewBox="0 0 490 537" width="490px" zoomAndPan="magnify"><defs/><g><!--MD5=[43a8cd23c77f6989e76c6483f5034c7c]
class NegozioAlimentari--><g id="elem_NegozioAlimentari"><rect codeLine="1" fill="#F1F1F1" height="145.7813" id="NegozioAlimentari" rx="2.5" ry="2.5" style="stroke:#181818;stroke-width:0.5;" width="223" x="42" y="7"/><ellipse cx="87.25" cy="23" fill="#ADD1B2" rx="11" ry="11" style="stroke:#181818;stroke-width:1.0;"/><path d="M90.2188,28.6406 Q89.6406,28.9375 89,29.0781 Q88.3594,29.2344 87.6563,29.2344 Q85.1563,29.2344 83.8281,27.5938 Q82.5156,25.9375 82.5156,22.8125 Q82.5156,19.6875 83.8281,18.0313 Q85.1563,16.375 87.6563,16.375 Q88.3594,16.375 89,16.5313 Q89.6563,16.6875 90.2188,16.9844 L90.2188,19.7031 Q89.5938,19.125 89,18.8594 Q88.4063,18.5781 87.7813,18.5781 Q86.4375,18.5781 85.75,19.6563 Q85.0625,20.7188 85.0625,22.8125 Q85.0625,24.9063 85.75,25.9844 Q86.4375,27.0469 87.7813,27.0469 Q88.4063,27.0469 89,26.7813 Q89.5938,26.5 90.2188,25.9219 L90.2188,28.6406 Z " fill="#000000"/><text fill="#000000" font-family="sans-serif" font-size="14" lengthAdjust="spacing" textLength="124" x="107.75" y="27.8467">NegozioAlimentari</text><line style="stroke:#181818;stroke-width:0.5;" x1="43" x2="264" y1="39" y2="39"/><text fill="#000000" font-family="sans-serif" font-size="14" lengthAdjust="spacing" textLength="92" x="48" y="55.9951">nome : string</text><text fill="#000000" font-family="sans-serif" font-size="14" lengthAdjust="spacing" textLength="109" x="48" y="72.292">indirizzo : string</text><text fill="#000000" font-family="sans-serif" font-size="14" lengthAdjust="spacing" textLength="137" x="48" y="88.5889">prodotti[] : Prodotto</text><text fill="#000000" font-family="sans-serif" font-size="14" lengthAdjust="spacing" textLength="111" x="48" y="104.8857">clienti[] : Cliente</text><line style="stroke:#181818;stroke-width:0.5;" x1="43" x2="264" y1="112.1875" y2="112.1875"/><text fill="#000000" font-family="sans-serif" font-size="14" lengthAdjust="spacing" textLength="211" x="48" y="129.1826">prodottiDisponibili() : prodotti[]</text><text fill="#000000" font-family="sans-serif" font-size="14" lengthAdjust="spacing" textLength="196" x="48" y="145.4795">calcolaValoreProdotti() : float</text></g><!--MD5=[20a748d5ee336a9a91751b0a3d4f0beb]
class Cliente--><g id="elem_Cliente"><rect codeLine="10" fill="#F1F1F1" height="113.1875" id="Cliente" rx="2.5" ry="2.5" style="stroke:#181818;stroke-width:0.5;" width="165" x="7" y="292"/><ellipse cx="61.25" cy="308" fill="#ADD1B2" rx="11" ry="11" style="stroke:#181818;stroke-width:1.0;"/><path d="M64.2188,313.6406 Q63.6406,313.9375 63,314.0781 Q62.3594,314.2344 61.6563,314.2344 Q59.1563,314.2344 57.8281,312.5938 Q56.5156,310.9375 56.5156,307.8125 Q56.5156,304.6875 57.8281,303.0313 Q59.1563,301.375 61.6563,301.375 Q62.3594,301.375 63,301.5313 Q63.6563,301.6875 64.2188,301.9844 L64.2188,304.7031 Q63.5938,304.125 63,303.8594 Q62.4063,303.5781 61.7813,303.5781 Q60.4375,303.5781 59.75,304.6563 Q59.0625,305.7188 59.0625,307.8125 Q59.0625,309.9063 59.75,310.9844 Q60.4375,312.0469 61.7813,312.0469 Q62.4063,312.0469 63,311.7813 Q63.5938,311.5 64.2188,310.9219 L64.2188,313.6406 Z " fill="#000000"/><text fill="#000000" font-family="sans-serif" font-size="14" lengthAdjust="spacing" textLength="48" x="81.75" y="312.8467">Cliente</text><line style="stroke:#181818;stroke-width:0.5;" x1="8" x2="171" y1="324" y2="324"/><text fill="#000000" font-family="sans-serif" font-size="14" lengthAdjust="spacing" textLength="92" x="13" y="340.9951">nome : string</text><text fill="#000000" font-family="sans-serif" font-size="14" lengthAdjust="spacing" textLength="118" x="13" y="357.292">cognome : string</text><text fill="#000000" font-family="sans-serif" font-size="14" lengthAdjust="spacing" textLength="153" x="13" y="373.5889">codiceUnivoco : string</text><text fill="#000000" font-family="sans-serif" font-size="14" lengthAdjust="spacing" textLength="79" x="13" y="389.8857">saldo : float</text><line style="stroke:#181818;stroke-width:0.5;" x1="8" x2="171" y1="397.1875" y2="397.1875"/></g><!--MD5=[0135bd918e0e85fbd308a4e0f54657e2]
class Prodotto--><g id="elem_Prodotto"><rect codeLine="17" fill="#F1F1F1" height="113.1875" id="Prodotto" rx="2.5" ry="2.5" style="stroke:#181818;stroke-width:0.5;" width="165" x="207" y="292"/><ellipse cx="255.25" cy="308" fill="#ADD1B2" rx="11" ry="11" style="stroke:#181818;stroke-width:1.0;"/><path d="M258.2188,313.6406 Q257.6406,313.9375 257,314.0781 Q256.3594,314.2344 255.6563,314.2344 Q253.1563,314.2344 251.8281,312.5938 Q250.5156,310.9375 250.5156,307.8125 Q250.5156,304.6875 251.8281,303.0313 Q253.1563,301.375 255.6563,301.375 Q256.3594,301.375 257,301.5313 Q257.6563,301.6875 258.2188,301.9844 L258.2188,304.7031 Q257.5938,304.125 257,303.8594 Q256.4063,303.5781 255.7813,303.5781 Q254.4375,303.5781 253.75,304.6563 Q253.0625,305.7188 253.0625,307.8125 Q253.0625,309.9063 253.75,310.9844 Q254.4375,312.0469 255.7813,312.0469 Q256.4063,312.0469 257,311.7813 Q257.5938,311.5 258.2188,310.9219 L258.2188,313.6406 Z " fill="#000000"/><text fill="#000000" font-family="sans-serif" font-size="14" lengthAdjust="spacing" textLength="60" x="275.75" y="312.8467">Prodotto</text><line style="stroke:#181818;stroke-width:0.5;" x1="208" x2="371" y1="324" y2="324"/><text fill="#000000" font-family="sans-serif" font-size="14" lengthAdjust="spacing" textLength="92" x="213" y="340.9951">nome : string</text><text fill="#000000" font-family="sans-serif" font-size="14" lengthAdjust="spacing" textLength="153" x="213" y="357.292">codiceUnivoco : string</text><text fill="#000000" font-family="sans-serif" font-size="14" lengthAdjust="spacing" textLength="90" x="213" y="373.5889">prezzo : float</text><text fill="#000000" font-family="sans-serif" font-size="14" lengthAdjust="spacing" textLength="86" x="213" y="389.8857">quantita : int</text><line style="stroke:#181818;stroke-width:0.5;" x1="208" x2="371" y1="397.1875" y2="397.1875"/></g><!--MD5=[ac0349b5e5e6bbe5d10b61911356fd13]
class ProdottoFresco--><g id="elem_ProdottoFresco"><rect codeLine="24" fill="#F1F1F1" height="64.2969" id="ProdottoFresco" rx="2.5" ry="2.5" style="stroke:#181818;stroke-width:0.5;" width="154" x="110.5" y="466"/><ellipse cx="132.25" cy="482" fill="#ADD1B2" rx="11" ry="11" style="stroke:#181818;stroke-width:1.0;"/><path d="M135.2188,487.6406 Q134.6406,487.9375 134,488.0781 Q133.3594,488.2344 132.6563,488.2344 Q130.1563,488.2344 128.8281,486.5938 Q127.5156,484.9375 127.5156,481.8125 Q127.5156,478.6875 128.8281,477.0313 Q130.1563,475.375 132.6563,475.375 Q133.3594,475.375 134,475.5313 Q134.6563,475.6875 135.2188,475.9844 L135.2188,478.7031 Q134.5938,478.125 134,477.8594 Q133.4063,477.5781 132.7813,477.5781 Q131.4375,477.5781 130.75,478.6563 Q130.0625,479.7188 130.0625,481.8125 Q130.0625,483.9063 130.75,484.9844 Q131.4375,486.0469 132.7813,486.0469 Q133.4063,486.0469 134,485.7813 Q134.5938,485.5 135.2188,484.9219 L135.2188,487.6406 Z " fill="#000000"/><text fill="#000000" font-family="sans-serif" font-size="14" lengthAdjust="spacing" textLength="107" x="147.75" y="486.8467">ProdottoFresco</text><line style="stroke:#181818;stroke-width:0.5;" x1="111.5" x2="263.5" y1="498" y2="498"/><text fill="#000000" font-family="sans-serif" font-size="14" lengthAdjust="spacing" textLength="142" x="116.5" y="514.9951">dataScadenza : date</text><line style="stroke:#181818;stroke-width:0.5;" x1="111.5" x2="263.5" y1="522.2969" y2="522.2969"/></g><!--MD5=[907b14abb6e4ad1d990160fbc812a78c]
class ProdottoConfezionato--><g id="elem_ProdottoConfezionato"><rect codeLine="28" fill="#F1F1F1" height="64.2969" id="ProdottoConfezionato" rx="2.5" ry="2.5" style="stroke:#181818;stroke-width:0.5;" width="184" x="299.5" y="466"/><ellipse cx="314.5" cy="482" fill="#ADD1B2" rx="11" ry="11" style="stroke:#181818;stroke-width:1.0;"/><path d="M317.4688,487.6406 Q316.8906,487.9375 316.25,488.0781 Q315.6094,488.2344 314.9063,488.2344 Q312.4063,488.2344 311.0781,486.5938 Q309.7656,484.9375 309.7656,481.8125 Q309.7656,478.6875 311.0781,477.0313 Q312.4063,475.375 314.9063,475.375 Q315.6094,475.375 316.25,475.5313 Q316.9063,475.6875 317.4688,475.9844 L317.4688,478.7031 Q316.8438,478.125 316.25,477.8594 Q315.6563,477.5781 315.0313,477.5781 Q313.6875,477.5781 313,478.6563 Q312.3125,479.7188 312.3125,481.8125 Q312.3125,483.9063 313,484.9844 Q313.6875,486.0469 315.0313,486.0469 Q315.6563,486.0469 316.25,485.7813 Q316.8438,485.5 317.4688,484.9219 L317.4688,487.6406 Z " fill="#000000"/><text fill="#000000" font-family="sans-serif" font-size="14" lengthAdjust="spacing" textLength="152" x="328.5" y="486.8467">ProdottoConfezionato</text><line style="stroke:#181818;stroke-width:0.5;" x1="300.5" x2="482.5" y1="498" y2="498"/><text fill="#000000" font-family="sans-serif" font-size="14" lengthAdjust="spacing" textLength="129" x="305.5" y="514.9951">confezione : string</text><line style="stroke:#181818;stroke-width:0.5;" x1="300.5" x2="482.5" y1="522.2969" y2="522.2969"/></g><!--MD5=[6368cd18198366ab66c2a36fb6fa4c62]
reverse link Prodotto to ProdottoFresco--><g id="link_Prodotto_ProdottoFresco"><path codeLine="32" d="M239.41,421.94 C228.68,437.45 217.9,453.04 208.96,465.96 " fill="none" id="Prodotto-backto-ProdottoFresco" style="stroke:#181818;stroke-width:1.0;"/><polygon fill="none" points="233.81,417.73,250.94,405.26,245.32,425.69,233.81,417.73" style="stroke:#181818;stroke-width:1.0;"/></g><!--MD5=[6ea0337ae1ec3c91bafe945df105e547]
reverse link Prodotto to ProdottoConfezionato--><g id="link_Prodotto_ProdottoConfezionato"><path codeLine="33" d="M339.59,421.94 C350.32,437.45 361.1,453.04 370.04,465.96 " fill="none" id="Prodotto-backto-ProdottoConfezionato" style="stroke:#181818;stroke-width:1.0;"/><polygon fill="none" points="333.68,425.69,328.06,405.26,345.19,417.73,333.68,425.69" style="stroke:#181818;stroke-width:1.0;"/></g><!--MD5=[6a89fd1d2c1c96a48fc1ed3619a632f3]
link NegozioAlimentari to Cliente--><g id="link_NegozioAlimentari_Cliente"><path codeLine="34" d="M136.18,153.12 C125.7,196.74 112.55,251.53 102.87,291.81 " fill="none" id="NegozioAlimentari-Cliente" style="stroke:#181818;stroke-width:1.0;"/><text fill="#000000" font-family="sans-serif" font-size="13" lengthAdjust="spacing" textLength="57" x="122.5" y="227.0669">possiede</text><text fill="#000000" font-family="sans-serif" font-size="13" lengthAdjust="spacing" textLength="24" x="109.3854" y="172.8877">1..1</text><text fill="#000000" font-family="sans-serif" font-size="13" lengthAdjust="spacing" textLength="26" x="76.9151" y="281.0504">0..N</text></g><!--MD5=[ef15ba4d9dc623ba1e3bf3c4ab65d977]
link NegozioAlimentari to Prodotto--><g id="link_NegozioAlimentari_Prodotto"><path codeLine="35" d="M190.3,153.12 C212.57,196.74 240.52,251.53 261.08,291.81 " fill="none" id="NegozioAlimentari-Prodotto" style="stroke:#181818;stroke-width:1.0;"/><text fill="#000000" font-family="sans-serif" font-size="13" lengthAdjust="spacing" textLength="57" x="230.5" y="227.0669">possiede</text><text fill="#000000" font-family="sans-serif" font-size="13" lengthAdjust="spacing" textLength="24" x="168.6638" y="172.8877">1..1</text><text fill="#000000" font-family="sans-serif" font-size="13" lengthAdjust="spacing" textLength="26" x="230.0319" y="281.0504">0..N</text></g><!--MD5=[8b7ad6547892efef9a4134040b24b3ec]
@startuml
class NegozioAlimentari {
  nome : string
  indirizzo : string
  prodotti[] : Prodotto
  clienti[] : Cliente
  prodottiDisponibili() : prodotti[]
  calcolaValoreProdotti() : float
}

class Cliente {
  nome : string  
  cognome : string
  codiceUnivoco : string
  saldo : float
}

class Prodotto {
  nome : string
  codiceUnivoco : string
  prezzo : float
  quantita : int
}

class ProdottoFresco {
  dataScadenza : date
}

class ProdottoConfezionato {
  confezione : string
}

Prodotto <|- - ProdottoFresco 
Prodotto <|- - ProdottoConfezionato 
NegozioAlimentari "1..1"- - -"0..N" Cliente : possiede 
NegozioAlimentari "1..1"- - -"0..N" Prodotto : possiede
@enduml

PlantUML version 1.2022.7(Mon Aug 22 17:01:30 UTC 2022)
(GPL source distribution)
Java Runtime: OpenJDK Runtime Environment
JVM: OpenJDK 64-Bit Server VM
Default Encoding: UTF-8
Language: en
Country: null
--></g></svg>